<svg width="179" height="40" viewBox="0 0 179 40" fill="none" xmlns="http://www.w3.org/2000/svg">
<mask id="mask0_2006_230" style="mask-type:luminance" maskUnits="userSpaceOnUse" x="0" y="0" width="40" height="40">
<path d="M0 0H40V40H0V0Z" fill="white"/>
</mask>
<g mask="url(#mask0_2006_230)">
<path d="M31.667 15L33.75 10.417L38.334 8.33399L33.75 6.24999L31.667 1.66699L29.584 6.24999L25 8.33399L29.584 10.417L31.667 15ZM19.167 15.834L15 6.66699L10.834 15.834L1.66699 20L10.834 24.167L15 33.334L19.167 24.167L28.334 20L19.167 15.834ZM31.667 25L29.584 29.584L25 31.667L29.584 33.75L31.667 38.334L33.75 33.75L38.334 31.667L33.75 29.584L31.667 25Z" fill="#063B26"/>
</g>
<path d="M70.8409 8.72727H76.4545V23.7386C76.4545 25.4735 76.0417 26.9848 75.2159 28.2727C74.3902 29.553 73.2386 30.5455 71.7614 31.25C70.2841 31.947 68.5682 32.2955 66.6136 32.2955C64.6364 32.2955 62.9091 31.947 61.4318 31.25C59.9545 30.5455 58.8068 29.553 57.9886 28.2727C57.1705 26.9848 56.7614 25.4735 56.7614 23.7386V8.72727H62.3864V23.25C62.3864 24.053 62.5606 24.7689 62.9091 25.3977C63.2652 26.0265 63.7614 26.5189 64.3977 26.875C65.0341 27.2311 65.7727 27.4091 66.6136 27.4091C67.4545 27.4091 68.1894 27.2311 68.8182 26.875C69.4545 26.5189 69.9508 26.0265 70.3068 25.3977C70.6629 24.7689 70.8409 24.053 70.8409 23.25V8.72727ZM79.9801 32V14.5455H85.2642V17.75H85.4574C85.821 16.6894 86.4347 15.8523 87.2983 15.2386C88.1619 14.625 89.1922 14.3182 90.3892 14.3182C91.6013 14.3182 92.6392 14.6288 93.5028 15.25C94.3665 15.8712 94.9157 16.7045 95.1506 17.75H95.3324C95.6581 16.7121 96.2945 15.8826 97.2415 15.2614C98.1884 14.6326 99.3059 14.3182 100.594 14.3182C102.245 14.3182 103.586 14.8485 104.616 15.9091C105.647 16.9621 106.162 18.4091 106.162 20.25V32H100.605V21.5227C100.605 20.6515 100.382 19.9886 99.9347 19.5341C99.4877 19.072 98.9081 18.8409 98.196 18.8409C97.4309 18.8409 96.8286 19.0909 96.3892 19.5909C95.9574 20.0833 95.7415 20.7462 95.7415 21.5795V32H90.4006V21.4659C90.4006 20.6553 90.1809 20.0152 89.7415 19.5455C89.3021 19.0758 88.7225 18.8409 88.0028 18.8409C87.518 18.8409 87.09 18.9583 86.7188 19.1932C86.3475 19.4205 86.0559 19.7462 85.8438 20.1705C85.6392 20.5947 85.5369 21.0947 85.5369 21.6705V32H79.9801ZM109.605 32V8.72727H115.162V17.5341H115.276C115.503 17.0038 115.825 16.4924 116.241 16C116.666 15.5076 117.204 15.1061 117.855 14.7955C118.514 14.4773 119.302 14.3182 120.219 14.3182C121.431 14.3182 122.563 14.6364 123.616 15.2727C124.677 15.9091 125.533 16.8902 126.185 18.2159C126.836 19.5417 127.162 21.2311 127.162 23.2841C127.162 25.2614 126.848 26.9167 126.219 28.25C125.598 29.5833 124.757 30.5833 123.696 31.25C122.643 31.9167 121.473 32.25 120.185 32.25C119.306 32.25 118.545 32.1061 117.901 31.8182C117.257 31.5303 116.715 31.1515 116.276 30.6818C115.844 30.2121 115.51 29.7083 115.276 29.1705H115.105V32H109.605ZM115.048 23.2727C115.048 24.2121 115.173 25.0303 115.423 25.7273C115.681 26.4242 116.048 26.9659 116.526 27.3523C117.01 27.7311 117.59 27.9205 118.264 27.9205C118.946 27.9205 119.526 27.7311 120.003 27.3523C120.48 26.9659 120.84 26.4242 121.082 25.7273C121.332 25.0303 121.457 24.2121 121.457 23.2727C121.457 22.3333 121.332 21.5189 121.082 20.8295C120.84 20.1402 120.48 19.6061 120.003 19.2273C119.533 18.8485 118.954 18.6591 118.264 18.6591C117.582 18.6591 117.003 18.8447 116.526 19.2159C116.048 19.5871 115.681 20.1174 115.423 20.8068C115.173 21.4962 115.048 22.3182 115.048 23.2727ZM130.074 32V14.5455H135.472V17.7273H135.653C135.972 16.5758 136.491 15.7197 137.21 15.1591C137.93 14.5909 138.767 14.3068 139.722 14.3068C139.979 14.3068 140.244 14.3258 140.517 14.3636C140.79 14.3939 141.044 14.4432 141.278 14.5114V19.3409C141.013 19.25 140.665 19.178 140.233 19.125C139.809 19.072 139.43 19.0455 139.097 19.0455C138.438 19.0455 137.843 19.1932 137.312 19.4886C136.79 19.7765 136.377 20.1818 136.074 20.7045C135.778 21.2197 135.631 21.8258 135.631 22.5227V32H130.074ZM147.807 32.2955C146.693 32.2955 145.705 32.1098 144.841 31.7386C143.985 31.3598 143.307 30.7917 142.807 30.0341C142.314 29.2689 142.068 28.3106 142.068 27.1591C142.068 26.1894 142.239 25.3712 142.58 24.7045C142.92 24.0379 143.39 23.4962 143.989 23.0795C144.587 22.6629 145.277 22.3485 146.057 22.1364C146.837 21.9167 147.67 21.7689 148.557 21.6932C149.549 21.6023 150.348 21.5076 150.955 21.4091C151.561 21.303 152 21.1553 152.273 20.9659C152.553 20.7689 152.693 20.4924 152.693 20.1364V20.0795C152.693 19.4962 152.492 19.0455 152.091 18.7273C151.689 18.4091 151.148 18.25 150.466 18.25C149.731 18.25 149.14 18.4091 148.693 18.7273C148.246 19.0455 147.962 19.4848 147.841 20.0455L142.716 19.8636C142.867 18.803 143.258 17.8561 143.886 17.0227C144.523 16.1818 145.394 15.5227 146.5 15.0455C147.614 14.5606 148.951 14.3182 150.511 14.3182C151.625 14.3182 152.652 14.4508 153.591 14.7159C154.53 14.9735 155.348 15.3523 156.045 15.8523C156.742 16.3447 157.28 16.9508 157.659 17.6705C158.045 18.3902 158.239 19.2121 158.239 20.1364V32H153.011V29.5682H152.875C152.564 30.1591 152.167 30.6591 151.682 31.0682C151.205 31.4773 150.64 31.7841 149.989 31.9886C149.345 32.1932 148.617 32.2955 147.807 32.2955ZM149.523 28.6591C150.121 28.6591 150.659 28.5379 151.136 28.2955C151.621 28.053 152.008 27.7197 152.295 27.2955C152.583 26.8636 152.727 26.3636 152.727 25.7955V24.1364C152.568 24.2197 152.375 24.2955 152.148 24.3636C151.928 24.4318 151.686 24.4962 151.42 24.5568C151.155 24.6174 150.883 24.6705 150.602 24.7159C150.322 24.7614 150.053 24.803 149.795 24.8409C149.273 24.9242 148.826 25.053 148.455 25.2273C148.091 25.4015 147.811 25.6288 147.614 25.9091C147.424 26.1818 147.33 26.5076 147.33 26.8864C147.33 27.4621 147.534 27.9015 147.943 28.2045C148.36 28.5076 148.886 28.6591 149.523 28.6591ZM167.193 8.72727V32H161.636V8.72727H167.193Z" fill="#063B26"/>
</svg>
