<svg width="342" height="104" viewBox="0 0 342 104" fill="none" xmlns="http://www.w3.org/2000/svg">
<path d="M114.58 80V40.7273H127.977V48.1932H128.386C129.205 45.7386 130.602 43.7955 132.58 42.3636C134.557 40.9318 136.909 40.2159 139.636 40.2159C142.398 40.2159 144.776 40.9489 146.77 42.4148C148.764 43.8636 149.966 45.7898 150.375 48.1932H150.784C151.449 45.7898 152.864 43.8636 155.028 42.4148C157.193 40.9489 159.733 40.2159 162.648 40.2159C166.415 40.2159 169.466 41.4261 171.801 43.8466C174.153 46.267 175.33 49.4886 175.33 53.5114V80H161.216V57.0909C161.216 55.3693 160.781 54.0227 159.912 53.0511C159.043 52.0625 157.875 51.5682 156.409 51.5682C154.96 51.5682 153.81 52.0625 152.957 53.0511C152.122 54.0227 151.705 55.3693 151.705 57.0909V80H138.205V57.0909C138.205 55.3693 137.77 54.0227 136.901 53.0511C136.031 52.0625 134.864 51.5682 133.398 51.5682C132.426 51.5682 131.591 51.7898 130.892 52.233C130.193 52.6761 129.648 53.3153 129.256 54.1506C128.881 54.9687 128.693 55.9489 128.693 57.0909V80H114.58ZM182.086 80V27.6364H196.2V47.5795H196.404C196.915 46.25 197.665 45.0312 198.654 43.9233C199.643 42.7983 200.87 41.9034 202.336 41.2386C203.802 40.5568 205.506 40.2159 207.45 40.2159C210.04 40.2159 212.504 40.9062 214.839 42.2869C217.191 43.6676 219.1 45.8409 220.566 48.8068C222.049 51.7727 222.79 55.625 222.79 60.3636C222.79 64.8977 222.083 68.6562 220.668 71.6392C219.271 74.6222 217.396 76.8466 215.043 78.3125C212.708 79.7784 210.143 80.5114 207.347 80.5114C205.506 80.5114 203.862 80.2131 202.413 79.6165C200.981 79.0028 199.754 78.1761 198.731 77.1364C197.725 76.0795 196.95 74.8864 196.404 73.5568H196.097V80H182.086ZM195.893 60.3636C195.893 62.2727 196.14 63.9261 196.634 65.3239C197.146 66.7045 197.862 67.7784 198.782 68.5455C199.719 69.2955 200.836 69.6705 202.131 69.6705C203.427 69.6705 204.526 69.304 205.43 68.571C206.35 67.821 207.049 66.7557 207.526 65.375C208.021 63.9773 208.268 62.3068 208.268 60.3636C208.268 58.4205 208.021 56.7585 207.526 55.3778C207.049 53.9801 206.35 52.9148 205.43 52.1818C204.526 51.4318 203.427 51.0568 202.131 51.0568C200.836 51.0568 199.719 51.4318 198.782 52.1818C197.862 52.9148 197.146 53.9801 196.634 55.3778C196.14 56.7585 195.893 58.4205 195.893 60.3636ZM228.697 80V40.7273H242.401V48.1932H242.81C243.526 45.4318 244.66 43.4119 246.211 42.1335C247.779 40.8551 249.612 40.2159 251.708 40.2159C252.322 40.2159 252.927 40.267 253.523 40.3693C254.137 40.4545 254.725 40.5824 255.288 40.7528V52.7955C254.589 52.5568 253.728 52.3778 252.705 52.2585C251.683 52.1392 250.805 52.0795 250.072 52.0795C248.691 52.0795 247.447 52.3949 246.339 53.0256C245.248 53.6392 244.387 54.5085 243.756 55.6335C243.126 56.7415 242.81 58.0455 242.81 59.5455V80H228.697ZM269.031 80.6136C266.525 80.6136 264.309 80.2045 262.383 79.3864C260.474 78.5511 258.974 77.2898 257.883 75.6023C256.792 73.9148 256.246 71.767 256.246 69.1591C256.246 67.0114 256.613 65.179 257.346 63.6619C258.079 62.1278 259.102 60.875 260.414 59.9034C261.727 58.9318 263.252 58.1903 264.991 57.679C266.746 57.1676 268.638 56.8352 270.667 56.6818C272.866 56.5114 274.63 56.3068 275.96 56.0682C277.306 55.8125 278.278 55.4631 278.874 55.0199C279.471 54.5597 279.769 53.9545 279.769 53.2045V53.1023C279.769 52.0795 279.377 51.2955 278.593 50.75C277.809 50.2045 276.803 49.9318 275.576 49.9318C274.229 49.9318 273.13 50.2301 272.278 50.8267C271.442 51.4062 270.94 52.3011 270.769 53.5114H257.781C257.951 51.125 258.71 48.9261 260.056 46.9148C261.42 44.8864 263.406 43.267 266.013 42.0568C268.621 40.8295 271.877 40.2159 275.781 40.2159C278.593 40.2159 281.116 40.5483 283.349 41.2131C285.582 41.8608 287.482 42.7727 289.05 43.9489C290.619 45.108 291.812 46.4716 292.63 48.0398C293.465 49.5909 293.883 51.2784 293.883 53.1023V80H280.69V74.4773H280.383C279.599 75.9432 278.644 77.1278 277.519 78.0312C276.411 78.9347 275.141 79.5909 273.71 80C272.295 80.4091 270.735 80.6136 269.031 80.6136ZM273.633 71.7159C274.707 71.7159 275.712 71.4943 276.65 71.0511C277.604 70.608 278.38 69.9687 278.977 69.1335C279.573 68.2983 279.871 67.2841 279.871 66.0909V62.8182C279.496 62.9716 279.096 63.1165 278.67 63.2528C278.261 63.3892 277.817 63.517 277.34 63.6364C276.88 63.7557 276.386 63.8665 275.857 63.9688C275.346 64.071 274.809 64.1648 274.246 64.25C273.156 64.4205 272.261 64.7017 271.562 65.0938C270.88 65.4688 270.369 65.9375 270.028 66.5C269.704 67.0455 269.542 67.6591 269.542 68.3409C269.542 69.4318 269.925 70.267 270.692 70.8466C271.46 71.4261 272.44 71.7159 273.633 71.7159ZM314.74 27.6364V80H300.626V27.6364H314.74Z" fill="black"/>
<rect x="3.5" y="3.5" width="95.6918" height="96.1796" rx="15.22" stroke="black" stroke-width="7"/>
<path d="M13.9531 17.866V22.3475C13.9531 23.3429 15.1544 23.8437 15.8615 23.1431L22.5482 16.5171C23.2587 15.8131 22.7601 14.6016 21.7598 14.6016H17.2791C16.9875 14.6016 16.7075 14.7153 16.4984 14.9185L14.2924 17.0629C14.0755 17.2738 13.9531 17.5635 13.9531 17.866Z" fill="black"/>
<path d="M88.481 17.866V22.3475C88.481 23.3429 87.2796 23.8437 86.5726 23.1431L79.8859 16.5171C79.1754 15.8131 79.674 14.6016 80.6742 14.6016H85.155C85.4466 14.6016 85.7266 14.7153 85.9357 14.9185L88.1416 17.0629C88.3586 17.2738 88.481 17.5635 88.481 17.866Z" fill="black"/>
<path d="M17.2176 88.1309H21.6991C22.6944 88.1309 23.1953 86.9295 22.4946 86.2225L15.8687 79.5358C15.1646 78.8253 13.9531 79.3239 13.9531 80.3241V84.8049C13.9531 85.0965 14.0668 85.3765 14.2701 85.5856L16.4145 87.7915C16.6254 88.0085 16.9151 88.1309 17.2176 88.1309Z" fill="black"/>
<path d="M85.2165 88.1309H80.735C79.7396 88.1309 79.2388 86.9295 79.9394 86.2225L86.5654 79.5358C87.2695 78.8253 88.481 79.3239 88.481 80.3241V84.8049C88.481 85.0965 88.3673 85.3765 88.164 85.5856L86.0196 87.7915C85.8087 88.0085 85.519 88.1309 85.2165 88.1309Z" fill="black"/>
<path d="M65.783 25.0352H74.7512V64.0034C74.7512 68.15 73.7773 71.8241 71.8293 75.0257C69.8814 78.2079 67.1427 80.7152 63.6133 82.5474C60.0839 84.3603 55.9469 85.2668 51.2025 85.2668C46.4773 85.2668 42.35 84.3603 38.8205 82.5474C35.2911 80.7152 32.5524 78.2079 30.6045 75.0257C28.6566 71.8241 27.6826 68.15 27.6826 64.0034V25.0352H36.6219V63.2802C36.6219 65.961 37.2101 68.3429 38.3866 70.4258C39.5824 72.5088 41.2699 74.1481 43.4493 75.3439C45.6287 76.5204 48.2131 77.1086 51.2025 77.1086C54.2111 77.1086 56.8052 76.5204 58.9845 75.3439C61.1832 74.1481 62.8611 72.5088 64.0183 70.4258C65.1948 68.3429 65.783 65.961 65.783 63.2802V25.0352Z" fill="black"/>
</svg>
